<?xml version="1.0" ?><svg data-name="Слой 1" id="Слой_1" viewBox="0 0 32 32" xmlns="http://www.w3.org/2000/svg"><path d="M31.2582,7.4515H11.6254A11.3675,11.3675,0,0,0,.2709,18.806v5.272a.4706.4706,0,0,0,.4707.47H20.3744a11.3671,11.3671,0,0,0,11.3545-11.354V7.9222A.4709.4709,0,0,0,31.2582,7.4515Zm-.4707,5.7427A10.425,10.425,0,0,1,20.3744,23.6077H1.2123V18.806A10.4252,10.4252,0,0,1,11.6254,8.3919H30.7875Z"/><path d="M10.8871,13.4207a.47.47,0,1,0,0-.94H6.3422a.47.47,0,0,0-.4707.47v6.8516a.471.471,0,0,0,.4707.4707h4.5449a.47.47,0,1,0,0-.94H6.8129V16.8465H9.974a.47.47,0,1,0,0-.94H6.8129V13.4207Z"/><path d="M15.3119,20.5521A3.8834,3.8834,0,0,0,18.5873,18.7a.47.47,0,1,0-.7949-.5029,2.9482,2.9482,0,0,1-2.4805,1.415,3.1276,3.1276,0,0,1-3-3.2353,3.1281,3.1281,0,0,1,3-3.2354,2.9483,2.9483,0,0,1,2.4805,1.4151.47.47,0,1,0,.7949-.5029,3.8834,3.8834,0,0,0-3.2754-1.8526,4.0685,4.0685,0,0,0-3.9414,4.1758A4.0685,4.0685,0,0,0,15.3119,20.5521Z"/><path d="M23.1186,20.5521A4.0685,4.0685,0,0,0,27.06,16.3763a4.0685,4.0685,0,0,0-3.9414-4.1758,4.0685,4.0685,0,0,0-3.9414,4.1758A4.0685,4.0685,0,0,0,23.1186,20.5521Zm0-7.4112a3.1281,3.1281,0,0,1,3,3.2354,3.1276,3.1276,0,0,1-3,3.2353,3.1276,3.1276,0,0,1-3-3.2353A3.1281,3.1281,0,0,1,23.1186,13.1409Z"/></svg>